<?xml version="1.0" encoding="utf-8"?>
<!-- Generator: Adobe Illustrator 18.1.0, SVG Export Plug-In . SVG Version: 6.00 Build 0)  -->
<svg version="1.1" xmlns="http://www.w3.org/2000/svg" xmlns:xlink="http://www.w3.org/1999/xlink" x="0px" y="0px"
	 viewBox="260.367 228.888 510.236 510.236" enable-background="new 260.367 228.888 510.236 510.236" xml:space="preserve">
<g id="图层_2">
</g>
<g id="图形">
	<g>
		<g>
			<rect x="375.321" y="462.045" fill="#FFFFFF" width="25.348" height="41.942"/>
			<rect x="469.457" y="462.045" fill="#FFFFFF" width="25.348" height="42.337"/>
			<polygon fill="#FFFFFF" points="445.797,421.792 425.135,421.792 425.135,527.836 417.357,527.836 417.357,546.177 
				445.711,546.177 445.711,542.292 445.797,542.292 			"/>
		</g>
		<g>
			<rect x="519.621" y="423.264" fill="#FFFFFF" width="24.795" height="9.17"/>
			<rect x="519.621" y="441.605" fill="#FFFFFF" width="24.795" height="9.17"/>
			<rect x="519.621" y="459.945" fill="#FFFFFF" width="24.795" height="9.17"/>
			<path fill="#FFFFFF" d="M655.648,441.605v-12.227h-10.817v-9.17h-20.662v9.17h-41.325v-9.17h-20.662v9.17h-10.027v12.227h38.954
				v9.17h-16.53h-1.766h-14.764v70.305h4.132v0h84.516v0h2.266v-70.305h-12.397h-4.132h-16.53v-9.17H655.648z M632.434,459.945
				v32.282h-45.457v9.17h45.457v10.513h-57.854v-30.867h49.59v-9.17h-49.59v-11.928H632.434z"/>
			<polyline fill="#FFFFFF" points="624.787,535.846 544.53,520.777 544.53,473.869 531.161,473.869 531.161,530.874 
				531.161,530.874 621.181,547.778 621.173,547.804 655.525,547.804 655.525,535.904 624.847,535.846 			"/>
		</g>
	</g>
	<g>
		<g>
			<polygon fill="#030000" points="697.886,514.18 697.345,514.18 697.345,513.368 697.345,513.368 697.525,513.53 697.704,513.693 
				697.886,514.18 697.886,514.18 			"/>
			<polygon fill="#030000" points="698.786,513.855 698.786,513.855 700.048,514.504 700.769,514.667 701.489,514.829 
				701.129,515.154 701.129,515.154 701.669,515.316 702.03,515.316 702.39,515.316 702.75,514.991 703.471,514.342 703.832,514.18 
				704.372,514.18 704.012,514.18 704.012,513.855 704.372,513.855 704.372,513.855 704.372,514.18 704.553,514.342 
				704.553,514.342 704.913,514.342 705.093,514.18 705.453,514.342 705.453,514.342 705.634,514.18 705.815,514.18 
				706.174,514.342 706.354,514.342 706.354,514.342 706.535,514.667 706.715,514.829 706.715,514.829 706.895,514.667 
				707.255,514.504 707.436,514.829 707.255,515.154 707.255,515.154 707.796,515.154 708.517,515.479 709.598,516.453 
				709.598,516.453 707.976,515.803 707.255,515.479 706.354,515.316 706.354,515.316 706.354,514.667 705.815,514.18 
				705.815,514.18 705.634,514.342 705.634,514.504 705.634,515.154 705.634,515.154 705.273,515.154 705.093,515.316 
				704.913,515.641 704.733,515.966 704.553,515.966 704.372,515.803 704.372,515.803 704.192,515.966 704.012,515.966 
				703.471,515.966 703.111,516.128 703.111,516.128 702.93,516.453 702.93,516.453 703.111,516.615 703.291,516.778 
				703.832,516.778 703.832,516.778 705.273,516.778 705.994,516.615 706.715,516.453 706.715,516.453 707.436,517.103 
				707.796,517.265 708.157,517.103 708.157,517.103 708.337,517.427 708.517,517.589 708.517,517.589 708.877,517.589 
				709.238,517.751 709.598,518.402 709.598,518.402 710.679,519.375 711.4,519.863 712.121,520.187 711.941,520.512 
				712.301,520.999 712.121,521.161 713.021,521.648 713.021,521.648 712.48,521.648 712.301,521.648 712.121,521.811 
				712.121,521.811 712.301,521.974 712.48,522.136 713.021,522.136 713.021,522.136 713.021,522.46 713.021,522.623 
				713.202,522.785 713.923,521.811 713.742,521.648 713.742,521.648 714.283,521.811 714.644,521.974 715.184,522.623 
				715.365,522.785 715.725,522.947 716.085,522.947 716.807,522.785 716.807,522.785 717.888,523.76 718.968,524.571 
				720.05,525.383 721.311,525.87 720.95,526.195 720.95,526.195 721.671,526.357 722.031,526.683 722.753,527.494 723.293,528.306 
				723.654,528.631 724.194,528.956 724.194,528.956 724.915,530.417 725.816,532.04 726.176,532.852 726.357,533.502 
				726.357,534.476 726.176,535.288 726.176,535.288 726.536,535.612 726.357,535.937 726.176,536.261 726.176,536.587 
				726.176,536.587 726.176,537.074 726.357,537.561 726.717,538.372 727.077,539.347 726.897,539.671 726.717,540.159 
				726.717,540.159 726.536,539.347 726.176,538.535 726.176,538.535 725.816,538.697 725.635,538.859 725.816,539.347 
				725.997,539.834 726.176,540.159 726.176,540.159 726.536,541.458 726.536,542.756 726.357,543.893 725.997,545.191 
				725.997,545.191 725.816,544.704 725.816,544.379 726.176,543.893 726.536,543.406 726.357,543.081 726.176,542.756 
				726.176,542.756 726.357,541.944 726.176,541.295 725.997,540.483 725.635,539.671 725.635,539.671 724.915,540.808 
				724.194,541.944 722.753,544.217 722.753,544.217 722.753,544.704 722.933,545.029 723.293,545.678 723.834,546.166 
				724.194,546.815 725.276,545.84 725.456,546.003 724.375,547.302 724.555,547.465 724.555,547.465 723.293,548.114 
				722.031,548.926 721.491,549.412 720.95,549.899 720.77,550.712 720.77,551.524 720.77,551.524 721.131,551.848 721.311,552.011 
				721.491,552.011 721.491,552.011 721.131,552.174 721.131,552.498 721.491,553.147 722.031,553.147 722.031,553.147 
				722.031,553.472 721.851,553.634 721.311,553.147 720.95,553.31 720.95,553.31 717.167,553.31 717.167,553.31 716.807,553.797 
				716.265,553.959 715.905,554.283 715.725,554.447 715.725,554.771 715.725,554.771 716.265,554.934 716.626,554.771 
				716.986,554.447 717.346,554.121 717.346,554.121 716.626,554.934 715.905,555.745 715.365,556.72 715.004,557.856 
				714.464,557.044 714.464,557.044 713.923,557.531 713.383,558.018 712.662,559.318 711.941,560.454 711.4,560.779 
				710.86,561.104 710.86,562.077 710.86,562.077 709.418,562.727 707.976,563.539 706.535,564.026 705.815,564.188 
				705.093,564.188 705.093,564.351 705.093,564.351 704.553,564.351 704.192,564.513 703.471,565.163 702.75,566.137 
				702.03,566.948 702.03,566.948 700.589,567.761 699.868,568.085 699.147,568.41 699.147,568.41 700.048,567.922 701.129,567.112 
				702.21,566.299 702.57,565.812 702.75,565.325 703.832,564.351 703.832,564.351 703.291,564.188 702.57,564.188 701.129,564.188 
				701.129,564.188 700.769,564.513 700.227,565 699.508,565.975 698.965,566.462 698.426,566.786 697.886,566.948 696.983,566.948 
				696.983,566.948 696.443,567.112 695.903,567.112 694.823,566.786 693.741,566.625 693.199,566.786 692.84,566.948 
				689.956,566.462 689.956,566.462 690.137,566.299 690.677,566.299 691.038,565.975 691.038,565.812 691.038,565.488 
				691.038,565.488 690.677,565.163 690.317,564.838 689.236,564.351 688.155,564.026 687.794,563.701 687.614,563.214 
				687.433,563.539 687.073,563.214 687.073,563.214 686.713,563.377 686.172,563.377 685.812,563.214 685.272,563.214 
				686.353,562.727 686.353,562.727 684.911,561.266 684.19,562.077 684.19,562.077 684.55,562.241 684.731,562.565 
				684.731,562.889 684.55,563.214 684.55,563.214 683.649,563.214 683.109,562.727 682.749,562.402 682.208,561.915 
				682.208,561.915 682.027,562.077 681.848,562.241 682.208,562.565 682.208,562.565 681.488,562.402 680.947,562.241 
				680.947,562.241 680.947,561.59 680.767,561.266 680.587,560.941 680.587,560.941 680.406,561.104 680.226,561.266 
				680.046,561.266 680.046,561.266 680.406,560.941 680.587,560.616 680.226,560.454 680.226,560.454 677.523,559.318 
				676.262,558.506 675.18,557.531 675.18,557.531 674.28,556.232 673.559,555.096 673.559,555.096 673.738,554.771 
				673.738,554.609 673.559,554.121 673.018,553.31 671.216,551.524 670.856,551.687 670.856,551.687 669.775,550.874 
				668.874,549.899 667.973,548.926 667.251,547.627 666.531,546.328 666.17,545.029 665.81,543.73 665.81,542.269 665.81,542.269 
				665.991,542.269 666.17,542.269 666.17,542.106 666.17,541.782 666.17,541.133 666.17,541.133 666.531,541.133 666.711,540.97 
				667.071,540.646 667.071,540.646 666.891,540.32 666.711,540.159 666.711,540.159 667.071,539.996 667.251,539.671 
				667.611,538.859 667.973,538.048 668.333,537.399 668.693,537.561 668.693,537.561 670.135,535.45 670.675,534.313 
				671.216,533.177 671.216,533.177 671.576,533.177 671.936,533.014 671.936,533.014 671.936,533.014 671.396,532.04 
				671.396,532.04 672.117,529.442 672.657,526.683 673.018,525.545 673.559,524.246 674.28,523.11 675.18,522.136 674.82,521.811 
				674.82,521.811 675.18,521.161 675.721,520.674 676.982,519.701 678.424,518.726 679.865,518.076 681.666,517.589 
				681.666,517.589 679.865,518.402 677.883,519.213 676.982,519.701 676.262,520.35 675.721,520.999 675.541,521.811 
				675.541,521.811 677.342,521.161 678.964,520.512 678.964,520.512 679.506,520.512 680.046,520.35 680.406,520.025 
				680.587,519.537 680.587,519.537 680.406,519.375 680.226,519.213 679.865,519.375 679.326,519.537 678.964,519.701 
				678.964,519.701 679.144,519.537 679.506,519.375 680.046,519.213 680.767,519.051 680.947,518.888 681.127,518.564 
				681.127,518.564 681.488,518.564 681.666,518.726 682.027,518.726 682.208,518.564 682.208,518.402 682.208,518.402 
				682.388,518.726 682.568,518.888 682.749,518.726 682.929,518.726 683.289,518.402 683.469,518.402 683.649,518.564 
				683.649,518.564 683.83,518.239 684.01,518.239 684.371,518.239 684.911,518.402 685.091,518.239 685.272,518.076 
				684.911,517.915 684.911,517.915 685.272,517.915 685.632,518.076 685.632,518.076 685.812,517.915 685.812,517.589 
				685.992,517.589 685.992,517.589 685.812,518.076 685.812,518.402 685.812,518.726 686.172,519.051 686.893,519.537 
				687.254,519.701 687.433,520.025 688.515,519.375 688.155,519.051 688.155,519.051 688.515,518.888 689.056,519.051 
				689.956,519.375 690.317,519.537 690.497,519.537 690.677,519.213 690.497,518.564 689.776,518.076 689.776,518.076 
				689.776,518.239 689.776,518.239 690.137,518.402 690.677,518.726 691.038,519.051 691.218,518.726 691.218,518.726 
				691.218,519.051 690.858,519.375 690.317,519.863 690.137,520.025 689.956,520.187 690.137,520.512 690.497,520.999 
				690.497,520.999 690.858,520.999 691.038,521.161 691.218,520.999 691.038,521.161 691.218,521.324 691.038,521.648 
				691.038,521.648 691.218,521.811 691.579,521.811 691.758,521.648 692.298,522.136 692.298,522.136 692.66,521.811 
				692.479,521.486 692.298,521.161 692.119,520.999 692.119,520.999 692.298,520.674 692.119,520.512 691.758,520.025 
				691.579,519.701 691.579,519.701 691.398,519.863 691.218,520.025 691.218,520.512 691.038,520.512 691.038,520.025 
				691.038,520.025 691.398,519.863 691.579,519.701 692.298,520.512 692.298,520.512 692.66,520.187 692.84,520.025 
				692.84,519.701 692.298,519.375 692.119,519.537 692.119,519.537 692.119,519.051 692.298,518.726 692.298,518.402 
				692.119,518.076 692.119,518.076 692.66,517.915 693.199,517.589 693.199,517.589 695.363,517.589 696.624,517.751 
				697.886,517.915 697.886,517.915 698.245,517.589 698.245,517.427 698.245,517.103 698.245,517.103 698.606,517.265 
				698.786,517.427 699.327,516.94 699.327,516.94 699.147,516.778 699.147,516.615 699.508,516.29 699.687,516.128 
				699.687,515.966 699.508,515.803 699.147,515.479 699.147,515.479 698.606,515.641 697.886,515.479 697.345,515.641 
				697.164,515.803 696.983,515.966 696.804,515.803 696.443,515.966 696.443,515.966 696.443,515.641 696.263,515.479 
				696.443,515.316 696.443,515.316 696.443,515.154 696.083,515.154 695.723,515.154 695.723,515.154 696.443,514.829 
				696.983,514.829 697.704,514.829 698.245,514.991 699.508,515.479 700.048,515.479 700.769,515.479 700.769,515.479 
				700.769,515.154 700.589,514.991 700.048,514.667 699.508,514.504 699.327,514.342 699.147,514.18 698.245,514.18 
				699.147,513.693 698.786,513.855 			"/>
			<polygon fill="#030000" points="703.291,515.479 703.471,514.829 704.012,514.829 703.291,515.479 			"/>
			<polygon fill="#030000" points="687.073,517.103 687.433,517.427 686.893,517.427 686.893,517.427 686.713,517.589 
				686.893,517.265 686.713,517.265 686.533,517.103 686.533,517.103 686.713,517.265 687.073,517.103 687.433,516.94 
				687.073,516.778 687.433,516.94 687.073,517.103 			"/>
			<polygon fill="#030000" points="702.93,516.94 702.21,516.778 702.93,516.778 702.93,516.94 			"/>
			<polygon fill="#030000" points="710.139,516.94 710.5,517.589 710.139,516.94 			"/>
			<polygon fill="#030000" points="677.702,517.915 678.784,517.103 678.064,517.915 677.702,517.915 			"/>
			<polygon fill="#030000" points="701.489,517.103 701.489,517.103 701.309,517.751 700.949,518.076 700.589,518.402 
				700.227,518.402 699.868,518.402 699.868,518.402 700.048,517.915 700.407,517.589 701.489,517.103 701.489,517.103 			"/>
			<polygon fill="#030000" points="708.697,518.402 708.697,518.402 709.238,518.726 709.418,519.051 709.598,519.537 
				710.139,519.701 710.139,519.701 709.418,519.863 708.697,520.025 707.436,520.674 707.436,520.674 706.715,520.187 
				706.354,519.537 705.815,518.888 705.093,518.402 705.093,518.402 704.913,518.564 704.733,518.726 704.733,518.726 
				704.553,518.726 704.372,518.726 704.012,518.402 704.012,518.402 704.372,517.915 704.913,517.751 705.634,517.589 
				706.174,517.589 706.895,517.589 707.616,517.751 708.337,517.915 708.697,518.402 708.697,518.402 			"/>
			<polygon fill="#030000" points="702.93,518.726 701.669,518.726 701.669,518.726 702.21,518.402 702.93,518.402 702.93,518.726 
							"/>
			<polygon fill="#030000" points="685.632,519.537 685.812,519.375 686.533,520.025 686.533,520.025 686.353,520.187 
				685.992,520.187 684.911,520.187 685.992,519.701 684.731,519.051 684.731,519.051 685.091,519.051 685.272,519.213 
				685.632,519.537 685.632,519.537 			"/>
			<polygon fill="#030000" points="688.695,521.648 688.695,521.648 688.695,521.974 688.695,522.298 688.876,522.298 
				689.236,522.136 689.236,522.136 689.416,522.298 689.776,522.298 689.776,522.623 689.776,522.623 689.236,522.623 
				688.876,522.46 688.155,521.811 687.614,520.999 687.614,520.999 687.974,520.999 688.155,521.161 688.695,521.648 
				688.695,521.648 			"/>
			<polygon fill="#030000" points="685.992,522.136 684.911,521.811 685.812,521.811 685.992,522.136 			"/>
			<polygon fill="#030000" points="683.109,522.298 683.109,522.298 684.01,522.298 684.371,522.298 684.731,522.623 
				684.731,522.623 684.19,522.623 683.649,522.46 683.289,522.46 683.109,522.623 683.109,522.785 682.929,523.11 683.109,523.273 
				683.109,523.273 683.289,523.273 683.109,523.435 682.749,523.435 681.666,523.597 681.666,523.597 681.848,523.273 
				681.848,523.11 681.666,522.785 681.666,522.623 681.666,522.623 682.027,522.46 682.388,522.136 682.749,522.136 
				683.109,522.298 683.109,522.298 			"/>
			<polygon fill="#030000" points="723.114,529.442 723.114,529.442 724.375,530.904 725.276,532.69 725.635,533.664 
				725.816,534.638 725.816,535.612 725.635,536.587 725.635,536.587 725.456,536.749 725.276,536.911 725.276,536.911 
				725.456,537.399 725.456,538.048 725.456,538.535 724.915,538.859 724.915,538.859 724.915,539.347 724.735,539.834 
				724.194,540.97 723.473,541.944 723.114,542.431 722.753,543.081 721.491,544.379 721.491,544.379 721.311,543.893 
				721.131,543.081 720.95,542.594 720.77,542.106 720.95,541.782 721.491,542.269 721.491,542.269 721.671,542.106 
				721.851,541.944 721.851,541.62 721.851,541.62 721.491,541.458 721.311,541.458 721.311,541.458 721.491,540.97 
				721.671,540.483 721.851,539.996 721.671,539.671 721.491,539.509 721.491,539.509 721.131,539.509 720.95,539.671 
				720.95,539.671 721.131,540.32 720.95,540.808 720.77,541.133 720.77,541.133 720.05,539.996 719.509,538.859 719.509,538.859 
				719.689,538.697 719.87,538.535 719.87,538.535 720.05,538.372 719.87,538.21 719.689,538.048 719.509,538.048 719.509,538.048 
				718.968,538.048 718.789,538.048 718.428,537.399 718.428,536.911 718.428,536.911 718.789,536.911 718.968,536.587 
				718.968,536.587 718.789,536.587 718.608,536.424 718.068,536.424 718.068,536.424 718.428,536.424 718.608,536.099 
				718.789,535.937 719.149,535.775 718.608,535.288 718.068,535.775 718.068,535.775 717.707,535.45 717.707,534.963 
				717.707,533.989 717.707,533.502 717.527,533.177 717.346,532.69 716.807,532.365 716.807,532.365 716.626,532.69 
				716.265,532.527 715.725,532.202 715.725,532.202 715.905,531.878 716.085,531.716 716.085,531.716 715.905,531.554 
				715.545,531.554 715.184,531.716 715.184,531.716 715.184,531.716 715.184,531.554 715.365,531.228 715.365,530.904 
				715.365,530.741 715.184,530.579 714.825,530.579 714.825,530.579 715.184,530.091 715.365,529.767 715.184,529.442 
				715.184,529.442 715.004,529.28 714.825,529.117 714.464,529.442 714.825,529.604 714.825,529.604 714.464,529.767 
				714.283,529.929 714.283,529.929 713.923,529.767 713.742,529.604 713.742,529.117 713.923,529.442 713.923,529.442 
				714.104,529.28 714.283,529.117 714.283,528.631 714.283,528.631 714.825,528.793 715.004,529.117 715.545,529.929 
				715.004,530.417 715.004,530.417 715.905,530.741 716.265,530.904 716.626,530.741 716.626,530.091 716.626,530.091 
				716.807,530.091 717.167,529.929 716.085,529.442 716.085,529.442 716.986,529.604 717.888,530.091 719.509,531.066 
				720.95,532.04 722.031,533.177 722.031,533.177 722.211,533.014 722.392,532.69 722.031,532.365 722.392,532.202 
				722.392,532.202 717.888,528.144 717.888,528.144 717.527,528.306 717.167,528.306 716.626,527.981 716.807,527.819 
				716.807,527.819 715.545,527.006 715.184,526.683 714.825,526.195 714.825,526.195 714.464,526.519 714.283,526.845 
				713.923,527.006 713.923,527.006 713.562,527.006 713.383,527.006 713.202,526.845 713.383,526.519 713.202,526.357 
				713.202,526.357 713.202,524.733 713.202,524.733 713.021,524.571 713.021,524.246 713.021,524.246 713.202,524.246 
				713.383,524.409 713.742,524.733 713.742,524.733 713.923,524.571 713.923,524.409 713.923,524.084 713.742,523.922 
				713.742,523.922 715.184,524.246 716.446,524.733 717.707,525.221 718.789,525.87 720.95,527.656 723.114,529.442 
				723.114,529.442 			"/>
			<polygon fill="#030000" points="683.649,526.195 683.649,526.195 684.19,525.708 684.731,525.545 684.911,525.545 
				685.091,525.545 685.632,526.195 685.632,526.195 685.632,526.032 685.812,525.87 685.812,525.383 686.353,527.006 
				686.353,527.006 686.172,526.519 685.812,526.195 684.731,525.87 684.55,526.195 684.55,526.195 684.731,526.195 
				684.731,526.357 684.731,526.845 684.731,526.845 684.01,527.169 683.83,527.494 683.649,527.819 683.649,527.819 
				683.469,527.656 683.289,527.656 682.749,527.981 682.749,527.981 682.749,527.819 682.568,527.656 682.208,527.331 
				682.208,527.331 682.027,527.819 681.666,528.144 681.127,528.306 680.587,528.144 680.587,528.144 680.767,527.819 
				680.947,527.494 681.127,527.494 680.947,527.819 680.947,527.819 681.127,527.981 681.308,527.981 681.488,527.819 
				681.666,527.494 681.848,527.331 682.208,527.331 682.208,527.331 681.848,527.169 681.666,527.006 681.666,526.519 
				681.666,526.519 682.027,526.683 682.388,526.683 682.568,526.519 682.749,526.357 683.109,525.221 683.109,525.221 
				683.109,525.383 683.289,525.708 683.649,526.195 683.649,526.195 			"/>
			<polygon fill="#030000" points="710.86,525.87 711.039,525.545 711.58,526.195 711.039,525.545 711.039,525.545 710.86,525.87 
				710.86,526.195 710.319,525.221 710.319,525.221 710.319,525.383 710.5,525.545 710.86,525.87 710.86,525.87 			"/>
			<polygon fill="#030000" points="684.731,528.631 683.649,528.469 684.731,528.469 684.731,528.631 			"/>
			<polygon fill="#030000" points="718.608,531.554 718.608,531.716 717.167,531.066 717.167,531.066 717.888,531.39 
				718.247,531.554 718.608,531.554 718.608,531.554 			"/>
			<polygon fill="#030000" points="715.545,533.014 715.545,533.014 715.184,532.852 714.825,532.527 714.283,532.527 
				714.104,532.527 713.923,532.69 715.004,533.664 715.004,533.664 714.283,533.34 713.923,533.014 713.742,532.527 
				713.742,531.716 713.742,531.716 714.644,532.202 715.184,532.527 715.545,533.014 715.545,533.014 			"/>
			<polygon fill="#030000" points="722.031,534.8 719.149,532.202 722.031,534.638 722.031,534.8 			"/>
			<polygon fill="#030000" points="723.834,534.638 724.194,534.313 724.555,534.8 724.194,534.313 724.194,534.313 
				723.834,534.638 724.015,534.963 724.194,535.126 724.375,535.45 724.375,535.45 724.735,535.45 724.915,535.288 
				724.915,535.288 724.735,535.45 724.555,535.775 725.276,536.261 725.456,535.937 725.635,536.261 724.915,536.587 
				724.915,536.587 724.555,535.775 723.834,534.963 722.392,533.34 722.392,533.34 722.753,533.664 723.114,533.989 
				723.654,534.151 723.834,534.638 723.834,534.638 			"/>
			<polygon fill="#030000" points="674.28,539.184 675.18,538.372 674.64,539.184 674.28,539.184 			"/>
			<polygon fill="#030000" points="714.283,540.97 714.283,540.97 714.104,540.97 713.923,541.133 713.923,541.62 713.923,541.62 
				713.562,541.62 713.383,541.782 713.383,542.106 713.202,541.782 713.202,541.782 713.383,541.782 713.562,541.782 
				713.742,541.458 713.742,540.97 713.742,540.808 713.923,540.646 713.202,539.996 714.283,540.97 			"/>
			<polygon fill="#030000" points="670.135,542.756 670.496,542.594 670.675,543.242 670.675,543.242 670.315,543.406 
				670.315,543.73 670.496,544.379 670.856,545.029 671.036,545.354 670.856,545.678 670.856,545.678 671.396,545.029 
				671.396,544.379 671.396,544.379 671.576,544.704 671.757,544.867 670.675,545.84 670.675,545.84 670.856,546.003 
				671.216,546.003 671.216,546.815 670.675,545.84 670.675,545.84 669.955,546.003 669.775,546.328 669.775,546.653 
				669.775,546.977 670.315,547.627 670.496,547.952 670.496,548.439 670.856,547.952 670.856,547.952 670.675,547.79 
				670.675,547.465 670.856,547.302 670.856,547.302 670.856,547.465 670.856,547.79 671.216,548.276 671.576,548.926 
				671.757,549.575 671.757,549.575 671.216,549.25 671.036,549.088 670.675,549.088 670.496,549.412 670.496,549.412 
				670.315,549.088 670.135,548.926 670.496,548.601 670.496,548.601 668.874,546.977 668.153,545.84 667.973,545.191 
				667.791,544.704 667.791,544.704 667.791,543.567 667.973,542.431 668.333,540.159 668.333,540.159 668.512,540.97 
				669.053,541.62 670.135,542.756 670.135,542.756 			"/>
			<polygon fill="#030000" points="714.825,543.081 715.184,543.406 715.184,543.406 715.004,543.73 715.004,544.055 
				714.825,543.73 714.464,544.055 714.464,544.055 714.464,544.055 714.464,543.893 714.825,543.73 715.004,543.406 
				715.004,543.242 714.825,543.081 714.825,543.081 714.283,543.242 714.464,543.081 714.825,542.756 714.825,542.431 
				714.464,542.269 715.004,542.756 714.825,543.081 			"/>
			<polygon fill="#030000" points="680.947,544.867 680.947,544.867 680.587,545.029 680.226,545.191 680.226,545.84 
				680.226,545.84 680.226,545.516 680.046,545.354 679.684,545.516 679.326,545.516 679.326,544.867 680.587,543.73 
				680.587,543.73 680.767,543.893 680.947,544.217 680.947,544.867 680.947,544.867 			"/>
			<polygon fill="#030000" points="715.725,546.328 715.545,546.491 715.545,546.491 715.725,546.166 715.725,545.84 
				715.725,545.516 715.545,545.191 715.545,545.191 715.725,545.678 715.725,546.328 715.725,546.328 			"/>
			<polygon fill="#030000" points="669.595,546.328 668.874,545.678 669.595,546.003 669.595,546.328 			"/>
			<polygon fill="#030000" points="668.693,549.412 667.791,548.276 668.693,548.926 668.693,549.412 			"/>
			<polygon fill="#030000" points="684.55,548.601 683.649,548.439 684.55,548.439 684.55,548.601 			"/>
			<polygon fill="#030000" points="679.865,558.506 679.865,558.506 678.964,558.18 678.244,557.856 677.523,557.207 
				677.342,556.882 677.162,556.395 677.162,556.395 677.883,556.882 678.604,557.37 679.326,558.018 679.684,558.18 
				679.865,558.506 679.865,558.506 			"/>
			<polygon fill="#030000" points="693.561,559.318 693.921,559.48 693.561,559.642 693.921,559.967 693.921,559.967 
				693.38,560.129 693.019,560.291 691.939,560.779 691.579,560.779 691.218,560.779 690.858,560.616 690.497,560.129 
				690.497,560.129 690.677,560.129 690.858,560.129 691.218,559.642 690.497,559.318 690.497,559.318 691.398,559.48 
				692.119,559.48 692.84,559.48 693.561,559.318 693.561,559.318 			"/>
			<polygon fill="#030000" points="706.895,559.318 706.895,559.318 706.535,559.967 706.354,560.291 705.815,560.454 
				705.815,560.454 705.634,560.291 705.634,560.129 705.634,559.642 705.634,559.642 705.994,559.642 706.174,559.318 
				706.535,559.155 706.895,559.318 706.895,559.318 			"/>
			<polygon fill="#030000" points="705.093,560.454 705.093,560.454 705.093,560.941 704.913,561.428 704.372,561.59 
				703.832,561.915 703.832,561.915 703.651,561.59 703.651,561.428 704.012,560.941 704.192,560.616 704.372,560.454 
				704.372,560.129 704.372,560.129 704.733,560.129 704.913,560.291 705.093,560.454 705.093,560.454 			"/>
			<polygon fill="#030000" points="696.983,562.565 696.983,562.565 696.624,562.727 696.443,563.052 695.903,563.701 
				695.543,564.026 695.182,564.188 694.823,564.351 694.102,564.188 693.561,563.539 693.561,563.539 693.741,563.214 
				694.102,563.052 695.002,563.052 695.723,562.889 696.083,562.727 696.263,562.565 696.983,562.565 			"/>
			<polygon fill="#030000" points="696.983,568.41 698.606,568.41 696.983,568.41 			"/>
		</g>
		<g>
			<g>
				<path fill="#FFFFFF" d="M702.726,522.603c0.827-0.28,1.323,0.211,1.49,1.477c-0.332,1.055,0.041,1.477,1.118,1.266
					c0.994,0.071,1.696,0.176,2.111,0.316c0.827,0.211,1.615,0.211,2.36,0c0.33-0.211,0.827-0.316,1.49-0.316
					c0.497,0.071,0.869-0.069,1.118-0.422c0.165-0.14,0.373-0.175,0.621-0.106c0.082,0.071,0.082,0.211,0,0.422
					c-0.745,0.986-1.16,1.759-1.242,2.321c-0.912,1.97-2.651,2.392-5.216,1.266c-2.319-0.984-3.52-0.702-3.602,0.844
					c-0.083,1.126-0.124,2.568-0.124,4.326c0,1.619,0.081,2.885,0.248,3.798c0.081,1.83-0.621,2.672-2.111,2.532
					c-2.567-0.071-4.389-0.457-5.464-1.16c-0.497-0.14-0.745-0.317-0.745-0.528c0.081-0.14,0.373-0.211,0.869-0.211
					c2.565,0.142,4.223-0.211,4.968-1.055c0.081-0.984,0.165-2.039,0.248-3.165c0-1.055,0.041-1.934,0.124-2.638
					c-0.167-0.702-0.829-0.633-1.987,0.211c-4.141,2.743-7.162,4.467-9.066,5.17c-3.064,1.055-4.803,0.88-5.216-0.528
					c-0.332-0.491-0.497-1.23-0.497-2.216c0-0.351,0.082-0.562,0.248-0.633c0.248,0,0.497,0.142,0.745,0.422
					c0.248,0.704,1.283,0.809,3.105,0.316c3.146-0.913,7.12-2.812,11.923-5.697c0.33-0.211,0.413-0.422,0.248-0.633
					c-0.167-0.211-0.497-0.351-0.994-0.422c-3.974,0.071-6.997,0.353-9.066,0.844c-1.242,0.493-2.775,0.844-4.595,1.055
					c-0.912,0.071-1.409-0.386-1.49-1.372c0-0.211-0.083-0.562-0.248-1.055c0-0.211,0-0.422,0-0.633
					c0.165-0.773,0.621-1.019,1.366-0.739c0.248,0.211,0.703,0.247,1.366,0.106c3.807-0.422,6.21-0.597,7.203-0.528
					c0.827,0.071,2.317,0.036,4.471-0.106c1.49-0.069,2.317-0.211,2.484-0.422C701.4,523.729,701.981,523.025,702.726,522.603z"/>
				<path fill="#FFFFFF" d="M697.759,544.068c0.082-0.702,0.621-0.984,1.615-0.844c0.91,0.353,1.572,0.739,1.987,1.161
					c0,0.353,0.33,0.493,0.994,0.422c0.745-0.069,1.49-0.035,2.235,0.105c0.578,0.142,1.158,0.142,1.739,0
					c0.578-0.069,1.199-0.035,1.863,0.106c0.662,0.282,1.531,0.422,2.608,0.422c0.33,0.071,0.497,0.282,0.497,0.633
					c0,0.282-0.167,0.458-0.497,0.528c-1.325,0.211-2.484,0.211-3.477,0c-2.732-0.491-5.175-0.562-7.327-0.211
					c-0.664,0.211-1.326,0.211-1.987,0c-1.739-0.422-3.893-0.211-6.458,0.633c-1.16,0.422-1.822,1.266-1.987,2.532
					c-0.083,0.353,0,0.564,0.248,0.633c0.165,0.071,0.454,0,0.869-0.211c1.987-1.195,3.602-2.005,4.844-2.427
					c1.158-0.351,1.739-0.069,1.739,0.844c-0.083,0.633-0.415,1.161-0.994,1.583c-1.242,0.915-1.822,1.935-1.739,3.06
					c0,0.422,0,0.986,0,1.688c0.082,0.633,0.124,1.337,0.124,2.11c-0.083,0.422-0.167,0.915-0.248,1.477
					c0,0.564,0.041,1.02,0.124,1.372c0,0.915-0.043,1.548-0.124,1.899c-0.415,0.493-0.829,0.528-1.242,0.106
					c-0.415-0.422-0.704-1.161-0.869-2.216c-0.083-1.055-0.043-1.934,0.124-2.638c0.165-0.773,0.248-1.723,0.248-2.849
					c-0.083-0.844-0.248-1.335-0.497-1.477c-0.745-0.069-1.615-0.386-2.608-0.95c-0.58,3.447-1.366,6.296-2.36,8.546
					c-0.58,0.986-1.49,1.197-2.732,0.633c-0.497-0.422-0.953-1.055-1.366-1.899c-0.167-0.211-0.167-0.422,0-0.633
					c0.248-0.14,0.497-0.14,0.745,0c0.248,0.211,0.621,0.071,1.118-0.422c1.49-1.757,2.484-4.326,2.981-7.702
					c0.33-1.266-0.291-2.356-1.863-3.271c-0.332-0.211-0.373-0.457-0.124-0.738c0.33-0.211,0.702-0.28,1.118-0.211
					c0.33,0.211,0.951,0.176,1.863-0.105c1.242-0.28,2.525-0.457,3.85-0.528c0.578,0,1.779-0.105,3.602-0.317
					C696.89,544.842,697.344,544.561,697.759,544.068z M699.622,554.196c0.91-0.211,1.987-0.211,3.229,0
					c0.248,0.071,0.373,0.176,0.373,0.317c0.081,0.071,0.041,0.211-0.124,0.422c-0.664,0.844-1.409,1.302-2.236,1.372
					c-0.497,0.142-0.912,0.282-1.242,0.422c-1.242,0.422-2.03,0.282-2.36-0.422c-0.083,0-0.167-0.069-0.248-0.211
					c-0.167-0.211-0.332-0.527-0.497-0.95c-0.167-0.773,0.248-1.055,1.242-0.844C698.089,554.512,698.71,554.478,699.622,554.196z
					 M707.074,548.393c-0.248,0.915,0.041,1.337,0.869,1.266c1.987,0,3.435-0.175,4.347-0.527c0.248-0.069,0.413-0.069,0.497,0
					c0.081,0.071,0.041,0.211-0.124,0.422c-0.083,0.071-0.208,0.176-0.373,0.317c-0.332,0.353-0.788,0.88-1.366,1.583
					c-0.912,0.915-1.863,1.231-2.856,0.95c-0.497-0.14-0.829-0.14-0.994,0c-0.248,0.071-0.332,0.282-0.248,0.633
					c0.082,0.493,0.124,1.126,0.124,1.899c-0.167,0.493-0.124,0.95,0.124,1.372c0.165,0.633,0.206,2.005,0.124,4.115
					c-0.332,1.266-1.366,1.863-3.105,1.794c-2.236,0-4.058-0.457-5.465-1.372c-0.415-0.14-0.58-0.28-0.497-0.422
					c0.081-0.14,0.33-0.211,0.745-0.211c0.497,0.211,0.994,0.247,1.49,0.106c0.91-0.069,2.152-0.069,3.726,0
					c0.994,0.211,1.407-0.702,1.242-2.743c0-0.14-0.043-0.633-0.124-1.477c0-1.899,0-3.2,0-3.904
					c-0.167-0.422-0.58-0.633-1.242-0.633c-2.484,0.142-4.141,0.422-4.968,0.844c-0.745,0.493-1.409,0.458-1.987-0.106
					c-0.415-0.351-0.54-0.879-0.373-1.583c0-0.491,0.249-0.702,0.745-0.633c0.413,0.211,0.91,0.176,1.49-0.106
					c0.994-0.351,2.814-0.562,5.465-0.633c0.745,0,1.199-0.316,1.366-0.95c0.082-0.491,0.33-0.739,0.745-0.739
					C706.783,547.655,706.991,547.902,707.074,548.393z"/>
			</g>
		</g>
	</g>
	<g id="XMLID_1_" opacity="0.64">
		<g id="XMLID_2_">
			<g>
				<path id="XMLID_5_" fill="#F4F4F4" d="M353.034,515.247c1.454,0.703,2.891,1.434,4.376,2.088
					c0.354,0.156,0.869,0.088,1.305,0.063c3.027-0.171,5.801,0.17,7.542,2.636c1.108,1.57,1.058,3.126-0.104,4.669
					c-1.798,2.387-5.153,3.771-7.591,3.119c-1.509-0.403-2.243-1.332-1.869-2.481c0.316-0.972,0.965-1.889,2.258-1.733
					c0.48,0.058,0.803,1.049,1.375,1.868c0.138-0.662,0.589-1.431,0.309-1.823c-0.385-0.539-1.339-1.124-2.023-1.102
					c-1.653,0.053-2.837,0.922-3.297,2.327c-0.424,1.296,0.29,2.24,1.49,2.952c2.375,1.409,5.039,1.431,7.421,0.044
					c1.02-0.594,1.889-1.41,2.975-1.877c1.382-0.595,2.876-1.126,4.389-1.343c1.981-0.283,3.551,0.488,4.469,2.076
					c0.732,1.267,1.922,1.868,3.574,2.158c0.883,0.155,1.983,0.835,2.314,1.514c0.541,1.111,0.88,2.46,0.669,3.625
					c-0.253,1.396,0.082,2.344,1.164,3.356c1.523,1.423,0.859,5.086-1.093,6.919c-1.698,1.594-4.627,1.937-6.788,0.795
					c-1.949-1.03-2.588-2.95-1.344-4.54c0.338-0.432,1.208-0.565,1.833-0.835c0.252,0.527,0.572,1.04,0.732,1.586
					c0.103,0.351-0.029,0.752-0.084,1.526c0.977-1.231,1.576-2.139,0.852-3.21c-0.724-1.072-1.927-1.186-3.238-1.006
					c-2.157,0.295-3.768,1.237-4.437,3.018c-0.694,1.846-0.6,3.651,1.087,5.189c3.342,3.047,9.388,3.258,13.938,0.48
					c1.409-0.86,2.834-1.702,4.311-2.475c-5.235,4.908-11.476,6.217-17.744,4.406c-5.589-1.615-11.064-5.278-11.208-7.623
					c3.532,1.485,7.148-0.402,7.975-4.26c0.747-3.48-1.53-6.826-5.505-6.541c-0.479,0.034-1.045-0.355-1.501-0.631
					c-1.653-1.002-3.404-1.498-5.48-1.177c-0.713,0.11-1.595-0.023-2.252-0.299c-2.307-0.967-4.561-1.727-7.267-1.225
					c-4.066,0.753-6.385,3.46-5.66,6.932c0.091,0.437,0.219,0.868,0.32,1.263c-0.956-0.484-1.886-1.284-2.896-1.367
					c-0.932-0.076-2.175,0.425-2.881,1.017c-1.08,0.905-0.591,2.125,1.054,3.021c-0.128-0.389-0.356-0.689-0.275-0.907
					c0.253-0.687,0.406-1.624,0.993-1.95c1-0.556,2.193-0.299,2.925,0.637c1.373,1.758,0.303,4.768-2.096,5.21
					c-2.382,0.439-4.945,0.771-7.323,0.494c-4.916-0.572-7.31-5.237-5.022-9.05c0.404-0.673,0.334-1.543,0.548-2.309
					c0.295-1.052,0.407-2.216,1.036-3.11c1.183-1.682,3.571-1.797,4.994-0.307c1.823,1.908,4.219,2.263,6.843,2.026
					c1.701-0.153,3.07-1.741,2.983-3.253c-0.088-1.525-1.597-2.934-3.295-3.074c-1.529-0.126-2.147,0.514-2.026,1.71
					c0.905-0.199,1.982-0.75,2.793-0.544c1.362,0.346,1.22,1.566,1.056,2.576c-0.18,1.108-1.038,1.636-2.3,1.725
					c-2.424,0.17-4.448-0.487-5.78-2.261c-1.329-1.77-0.704-3.46,0.582-5.039c2.838-3.483,6.927-4.073,11.444-3.394
					c1.303,0.196,2.102,0.104,3.014-0.821c0.688-0.698,1.95-0.988,2.956-1.46C351.382,515.247,352.208,515.247,353.034,515.247z"/>
				<path id="XMLID_4_" fill="#F4F4F4" d="M360.74,537.928c-1.37,0.84-1.772,1.957-1.486,3.101c0.274,1.093,0.666,2.355,1.526,3.121
					c4.417,3.934,9.527,6.872,16.251,6.909c3.987,0.022,7.469-1.294,10.545-3.359c1.567-1.052,3.001-2.254,4.446-3.431
					c2.685-2.187,5.811-2.845,9.442-1.89c-0.88,0.163-1.751,0.373-2.64,0.48c-2.489,0.302-4.599,1.172-6.246,2.816
					c-0.38,0.379-0.872,0.675-1.272,1.041c-6.598,6.029-14.68,6.58-23.413,4.505c-1.97-0.468-3.87-1.192-5.74-1.914
					c-4.652-1.796-7.978-4.619-9.787-8.792c-0.861-1.986-2.194-3.867-3.608-5.624c-1.09-1.355-2.267-1.331-3.218-0.577
					c0.785,0.466,1.906,0.825,2.335,1.5c0.27,0.424-0.275,1.558-0.853,1.959c-0.942,0.654-3.114-0.022-3.876-0.975
					c-1.288-1.61-1.416-4.911-0.245-6.317c1.283-1.54,4.981-2.431,7.418-1.786c0.056,0.015,0.119,0.023,0.166,0.05
					c2.492,1.422,5.16,1.702,8.185,1.682c2.294-0.015,4.427,1.592,6.882,2.087c1.691,0.341,2.376,2.887,1.897,4.767
					c-0.489,1.92-2.496,3.856-4.227,4.077c-1.43,0.183-2.544-0.578-2.619-1.841C360.573,539.033,360.681,538.543,360.74,537.928z"/>
				<path id="XMLID_3_" fill="#F4F4F4" d="M392.64,534.212c-2.818,1.109-3.116,2.495-1.184,3.973c1.505,1.151,3.156,1.68,5.19,1.061
					c4.831-1.469,7.385-0.824,11.095,2.893c-0.799-0.205-1.359-0.327-1.901-0.491c-5.975-1.803-11.471-1.026-16.527,2.185
					c-1.558,0.989-3.088,2.017-4.708,2.928c-2.858,1.608-5.993,2.056-9.288,1.203c-3.082-0.798-4.872-3.09-4.258-5.458
					c0.178-0.687,0.786-1.293,1.197-1.936c0.17,0.05,0.339,0.101,0.509,0.151c0,0.369,0.012,0.738-0.002,1.107
					c-0.134,3.623,3.521,5.946,7.603,4.872c5.242-1.38,7.547-8.065,3.839-10.621c-0.321-0.221-0.394-0.885-0.317-1.308
					c0.341-1.856,0.016-3.559-1.135-5.189c-1.024-1.451-0.59-2.108,1.436-2.179c1.645-0.058,3.297,0.072,4.946,0.067
					c1.398-0.005,2.348,0.485,3.322,1.373c0.706,0.644,1.995,0.972,3.088,1.137c2.952,0.445,4.017,1.134,4.4,3.19
					c0.385,2.067-0.909,4.319-2.987,5.197c-1.537,0.65-4.24,0.099-5.022-1.174c-0.294-0.478-0.103-1.207-0.008-1.807
					C391.981,535.057,392.295,534.759,392.64,534.212z"/>
			</g>
		</g>
	</g>
</g>
</svg>
